<?xml version="1.0" encoding="UTF-8"?>
<svg width="256" height="256" version="1.1" viewBox="0 0 256 256" xmlns="http://www.w3.org/2000/svg"><g stroke-linecap="round" stroke-linejoin="round"><path d="m127 0a17.7 17.7 0 0 0-11.8 4.71l-42 38.9a17.7 17.7 0 0 0 12.1 30.7l14.5-0.051v25.6h-25.5l0.051-14.5a17.7 17.7 0 0 0-30.7-12.1l-38.9 42a17.7 17.7 0 0 0-0.247 23.8l38.5 43.4a17.7 17.7 0 0 0 30.9-11.7l0.0597-14.6h25.8v25.5l-14.5-0.051a17.7 17.7 0 0 0-12.1 30.7l42 38.9a17.7 17.7 0 0 0 23.8 0.247l43.4-38.5a17.7 17.7 0 0 0-11.7-30.9l-14.6-0.0597v-25.8h25.8l0.0597 14.6a17.7 17.7 0 0 0 30.9 11.7l38.7-43.4a17.7 17.7 0 0 0-0.23-23.8l-38.9-42a17.7 17.7 0 0 0-30.7 12.1l0.051 14.5h-25.6v-25.8l14.6-0.0597a17.7 17.7 0 0 0 11.7-30.9l-43.4-38.6a17.7 17.7 0 0 0-11.9-4.48zm0.4 41.6 1.31 1.17a17.7 17.7 0 0 0-0.826 0.349 17.7 17.7 0 0 0-1.46-0.604zm-85 85a17.7 17.7 0 0 0 0.528 1.3 17.7 17.7 0 0 0-0.374 0.911l-1.08-1.22zm171 0.545 0.4 0.425-1.16 1.3a17.7 17.7 0 0 0-0.153-0.357 17.7 17.7 0 0 0 0.911-1.37zm-86.2 85.8a17.7 17.7 0 0 0 0.919 0.383l-1.22 1.08-1-0.928a17.7 17.7 0 0 0 1.3-0.536z" color="#000000" fill="#fff" stroke-width="4.36" style="-inkscape-stroke:none"/><path d="m129 11.1a6.81 6.81 0 0 0-6.21 1.63l-42 38.9a6.81 6.81 0 0 0 4.65 11.8l25.4-0.0936v47.5h-47.3l0.0936-25.4a6.81 6.81 0 0 0-11.8-4.65l-38.9 42a6.81 6.81 0 0 0-0.102 9.14l38.5 43.4a6.81 6.81 0 0 0 11.9-4.49l0.102-25.5h47.5v47.3l-25.4-0.0936a6.81 6.81 0 0 0-4.65 11.8l42 38.9a6.81 6.81 0 0 0 9.14 0.102l43.4-38.5a6.81 6.81 0 0 0-4.49-11.9l-25.5-0.102v-47.5h47.5l0.102 25.5a6.81 6.81 0 0 0 11.9 4.5l38.7-43.4a6.81 6.81 0 0 0-0.0936-9.15l-38.9-42a6.81 6.81 0 0 0-11.8 4.65l0.0936 25.4h-47.5v-47.5l25.5-0.102a6.81 6.81 0 0 0 4.5-11.9l-43.4-38.7a6.81 6.81 0 0 0-2.94-1.53z" color="#000000" fill-rule="evenodd" stroke-width="13.6" style="-inkscape-stroke:none"/></g></svg>
